# xmcd
#
# Track frame offsets: 
#        150
#        13808
#        33225
#        45992
#        62310
#        79675
#        97527
#        115116
#        132232
#        145949
#        162130
#        180550
#        199536
#        219826
#        234992
#        248511
#        265191
#        281909
#        293766
#        312648
#
# Disc length: 4408 seconds
#
# Revision: 0
# Processed by: cddbd v1.5.2PL0 Copyright (c) Steve Scherf et al.
# Submitted via: ExactAudioCopy v1.0b6
#
DISCID=03113614
DTITLE=Various Artist - Blues in Britain2002
DYEAR=2002
DGENRE=Blues
TTITLE0=West Weston - I know what's going on
TTITLE1=The Danial Smith Blues Band - Fast Train
TTITLE2=Faul Bradley - You will be my number one
TTITLE3=The Custom Tones - Lets Slide
TTITLE4=Guy Tortora - Hallowed Ground
TTITLE5=Groove Doctors - Tequilla and pills
TTITLE6=Rag Mama Rag - No luck but bad luck
TTITLE7=Breakout Blues - Drunk and homeless
TTITLE8=Eddie Martin Acoustic Trio - It's a mystery to me
TTITLE9=Rod Demick - Loose change
TTITLE10=Sugerland Slim - Mary
TTITLE11=Pete G and the Magitones - Big man blues
TTITLE12=So Long Angel - Mobile phone blues
TTITLE13=Sonny Black - Just enough
TTITLE14=The Blackjacks - Blackjack boogie
TTITLE15=Tim Royce - Rusty tin
TTITLE16=Cliff Stocker's Slack Alice - The way women are made
TTITLE17=Dino Coccia - Hay Renee
TTITLE18=Marcus Malone and Pappa George - Take it to heart
TTITLE19=Chris Rea - Blues mag blues
EXTD=
EXTT0=
EXTT1=
EXTT2=
EXTT3=
EXTT4=
EXTT5=
EXTT6=
EXTT7=
EXTT8=
EXTT9=
EXTT10=
EXTT11=
EXTT12=
EXTT13=
EXTT14=
EXTT15=
EXTT16=
EXTT17=
EXTT18=
EXTT19=
PLAYORDER=
